<svg aria-hidden="true" style="position:absolute;width:0;height:0;overflow:hidden" xmlns="http://www.w3.org/2000/svg">
  <defs>
    <symbol id="logo" viewBox="0 0 32 32">
      <path fill="none" stroke-linejoin="round" stroke-linecap="round" stroke-width="2.88" d="M1.6 1.734v7.139m0 .001v.144m0-.144c0 2.038.889 3.843 2.268 5.011.674.571 1.12 1.342 1.12 2.198V28c0 1.325 1.138 2.4 2.541 2.4s2.541-1.075 2.541-2.4V16.083c0-.856.446-1.627 1.12-2.198 1.379-1.168 2.268-2.973 2.268-5.011V1.735M7.529 9.6v-8M30.4 3.282c0-.883-.759-1.6-1.694-1.6h-1.694c-2.807 0-5.082 2.149-5.082 4.8v9.6c0 2.087 1.418 3.845 3.388 4.506v7.411c0 1.325 1.139 2.4 2.541 2.4s2.541-1.075 2.541-2.4V3.282z"/>
    </symbol>
    <symbol id="email" viewBox="0 0 31 32">
      <path fill="none" stroke-linejoin="round" stroke-linecap="round" stroke-width="2.56" d="m2.56 9.6 10.451 7.316c.846.593 1.27.889 1.73 1.003.407.101.832.101 1.238 0 .46-.115.883-.411 1.73-1.003L28.16 9.6M8.704 26.24h13.312c2.151 0 3.226 0 4.047-.419a3.838 3.838 0 0 0 1.678-1.678c.419-.822.419-1.897.419-4.047v-8.192c0-2.151 0-3.226-.419-4.047a3.838 3.838 0 0 0-1.678-1.678c-.822-.419-1.897-.419-4.047-.419H8.704c-2.151 0-3.226 0-4.047.419a3.838 3.838 0 0 0-1.678 1.678c-.419.821-.419 1.897-.419 4.047v8.192c0 2.151 0 3.226.419 4.047.368.723.956 1.31 1.678 1.678.821.419 1.897.419 4.047.419z"/>
    </symbol>
    <symbol id="user" viewBox="0 0 31 32">
      <path fill="none" stroke-linecap="round" stroke-width="2.56" d="M25.6 27.52c0-1.786 0-2.679-.22-3.406a5.12 5.12 0 0 0-3.413-3.413c-.727-.22-1.62-.22-3.406-.22h-6.4c-1.786 0-2.679 0-3.406.22a5.12 5.12 0 0 0-3.413 3.413c-.22.727-.22 1.62-.22 3.406M21.12 10.24a5.76 5.76 0 1 1-11.52 0 5.76 5.76 0 0 1 11.52 0z"/>
    </symbol>
    <symbol id="lock" viewBox="0 0 31 32">
      <path fill="none" stroke-linejoin="round" stroke-linecap="round" stroke-width="2.56" d="M21.76 14.72v-3.84c0-3.535-2.865-6.4-6.4-6.4s-6.4 2.865-6.4 6.4v3.84m1.024 12.8h10.752c2.151 0 3.226 0 4.047-.419a3.838 3.838 0 0 0 1.678-1.678c.419-.822.419-1.897.419-4.047v-.512c0-2.151 0-3.226-.419-4.047a3.838 3.838 0 0 0-1.678-1.678c-.822-.419-1.897-.419-4.047-.419H9.984c-2.151 0-3.226 0-4.047.419a3.838 3.838 0 0 0-1.678 1.678c-.419.822-.419 1.897-.419 4.047v.512c0 2.151 0 3.226.419 4.047.368.723.956 1.31 1.678 1.678.821.419 1.897.419 4.047.419z"/>
    </symbol>
  </defs>
</svg>
